<?xml version="1.0" standalone="yes"?>

<svg version="1.1" viewBox="0.0 0.0 960.0 720.0" fill="none" stroke="none" stroke-linecap="square" stroke-miterlimit="10" clip-path="url(#p.0)" xmlns="http://www.w3.org/2000/svg" xmlns:xlink="http://www.w3.org/1999/xlink"><clipPath id="p.0"><path d="m0 0l960.0 0l0 720.0l-960.0 0l0 -720.0z" clip-rule="nonzero"></path></clipPath><path fill="#980000" stroke="#000000" stroke-width="2.0" stroke-linejoin="round" stroke-linecap="butt" d="m104.90417 186.00836l-0.47343445 331.6604l482.39575 2.6654663l0 -102.20267l-445.7824 -1.7478333l0.87586975 -129.66324l443.97153 -2.2381897l0.99420166 -102.35803z" fill-rule="nonzero"></path><path fill="#38761d" stroke="#000000" stroke-width="2.0" stroke-linejoin="round" stroke-linecap="butt" d="m160.60431 304.57626l694.96497 0.872345l0 96.08832l-693.39026 -1.7472229z" fill-rule="nonzero"></path><path fill="#000000" d="m801.49774 319.76572q1.265625 0.859375 2.3125 1.265625l-0.53125 1.25q-1.453125 -0.53125 -2.921875 -1.671875q-1.5 0.84375 -3.328125 0.84375q-1.84375 0 -3.359375 -0.890625q-1.5 -0.890625 -2.3125 -2.5q-0.8125 -1.625 -0.8125 -3.640625q0 -2.015625 0.8125 -3.65625q0.828125 -1.65625 2.328125 -2.515625q1.515625 -0.875 3.375 -0.875q1.890625 0 3.390625 0.90625q1.515625 0.890625 2.3125 2.5q0.796875 1.609375 0.796875 3.625q0 1.6875 -0.515625 3.03125q-0.515625 1.328125 -1.546875 2.328125zm-3.953125 -2.296875q1.5625 0.421875 2.5625 1.296875q1.59375 -1.453125 1.59375 -4.359375q0 -1.65625 -0.5625 -2.875q-0.5625 -1.234375 -1.640625 -1.921875q-1.078125 -0.6875 -2.421875 -0.6875q-2.015625 0 -3.34375 1.390625q-1.328125 1.375 -1.328125 4.109375q0 2.65625 1.3125 4.078125q1.3125 1.40625 3.359375 1.40625q0.953125 0 1.8125 -0.359375q-0.84375 -0.546875 -1.78125 -0.78125l0.4375 -1.296875zm8.167664 3.75l0 -13.59375l4.6875 0q1.578125 0 2.421875 0.1875q1.15625 0.265625 1.984375 0.96875q1.078125 0.921875 1.609375 2.34375q0.53125 1.40625 0.53125 3.21875q0 1.546875 -0.359375 2.75q-0.359375 1.1875 -0.921875 1.984375q-0.5625 0.78125 -1.234375 1.234375q-0.671875 0.4375 -1.625 0.671875q-0.953125 0.234375 -2.1875 0.234375l-4.90625 0zm1.796875 -1.609375l2.90625 0q1.34375 0 2.109375 -0.25q0.765625 -0.25 1.21875 -0.703125q0.640625 -0.640625 1.0 -1.71875q0.359375 -1.078125 0.359375 -2.625q0 -2.125 -0.703125 -3.265625q-0.703125 -1.15625 -1.703125 -1.546875q-0.71875 -0.28125 -2.328125 -0.28125l-2.859375 0l0 10.390625zm11.472961 -10.078125l0 -1.90625l1.671875 0l0 1.90625l-1.671875 0zm0 11.6875l0 -9.859375l1.671875 0l0 9.859375l-1.671875 0zm3.4573364 -2.9375l1.65625 -0.265625q0.140625 1.0 0.765625 1.53125q0.640625 0.515625 1.78125 0.515625q1.15625 0 1.703125 -0.46875q0.5625 -0.46875 0.5625 -1.09375q0 -0.5625 -0.484375 -0.890625q-0.34375 -0.21875 -1.703125 -0.5625q-1.84375 -0.46875 -2.5625 -0.796875q-0.703125 -0.34375 -1.078125 -0.9375q-0.359375 -0.609375 -0.359375 -1.328125q0 -0.65625 0.296875 -1.21875q0.3125 -0.5625 0.828125 -0.9375q0.390625 -0.28125 1.0625 -0.484375q0.671875 -0.203125 1.4375 -0.203125q1.171875 0 2.046875 0.34375q0.875 0.328125 1.28125 0.90625q0.421875 0.5625 0.578125 1.515625l-1.625 0.21875q-0.109375 -0.75 -0.65625 -1.171875q-0.53125 -0.4375 -1.5 -0.4375q-1.15625 0 -1.640625 0.390625q-0.484375 0.375 -0.484375 0.875q0 0.328125 0.203125 0.59375q0.203125 0.265625 0.640625 0.4375q0.25 0.09375 1.46875 0.4375q1.765625 0.46875 2.46875 0.765625q0.703125 0.296875 1.09375 0.875q0.40625 0.578125 0.40625 1.4375q0 0.828125 -0.484375 1.578125q-0.484375 0.734375 -1.40625 1.140625q-0.921875 0.390625 -2.078125 0.390625q-1.921875 0 -2.9375 -0.796875q-1.0 -0.796875 -1.28125 -2.359375z" fill-rule="nonzero"></path><path fill="#000000" d="m525.9205 203.31195l0 -13.59375l6.03125 0q1.8125 0 2.75 0.359375q0.953125 0.359375 1.515625 1.296875q0.5625 0.921875 0.5625 2.046875q0 1.453125 -0.9375 2.453125q-0.921875 0.984375 -2.890625 1.25q0.71875 0.34375 1.09375 0.671875q0.78125 0.734375 1.484375 1.8125l2.375 3.703125l-2.265625 0l-1.796875 -2.828125q-0.796875 -1.21875 -1.3125 -1.875q-0.5 -0.65625 -0.90625 -0.90625q-0.40625 -0.265625 -0.8125 -0.359375q-0.3125 -0.078125 -1.015625 -0.078125l-2.078125 0l0 6.046875l-1.796875 0zm1.796875 -7.59375l3.859375 0q1.234375 0 1.921875 -0.25q0.703125 -0.265625 1.0625 -0.828125q0.375 -0.5625 0.375 -1.21875q0 -0.96875 -0.703125 -1.578125q-0.703125 -0.625 -2.21875 -0.625l-4.296875 0l0 4.5zm18.176086 4.421875l1.71875 0.21875q-0.40625 1.5 -1.515625 2.34375q-1.09375 0.828125 -2.8125 0.828125q-2.15625 0 -3.421875 -1.328125q-1.265625 -1.328125 -1.265625 -3.734375q0 -2.484375 1.265625 -3.859375q1.28125 -1.375 3.328125 -1.375q1.984375 0 3.234375 1.34375q1.25 1.34375 1.25 3.796875q0 0.140625 -0.015625 0.4375l-7.34375 0q0.09375 1.625 0.921875 2.484375q0.828125 0.859375 2.0625 0.859375q0.90625 0 1.546875 -0.46875q0.65625 -0.484375 1.046875 -1.546875zm-5.484375 -2.703125l5.5 0q-0.109375 -1.234375 -0.625 -1.859375q-0.796875 -0.96875 -2.078125 -0.96875q-1.140625 0 -1.9375 0.78125q-0.78125 0.765625 -0.859375 2.046875zm15.500732 5.875l0 -1.25q-0.9375 1.46875 -2.75 1.46875q-1.171875 0 -2.171875 -0.640625q-0.984375 -0.65625 -1.53125 -1.8125q-0.53125 -1.171875 -0.53125 -2.6875q0 -1.46875 0.484375 -2.671875q0.5 -1.203125 1.46875 -1.84375q0.984375 -0.640625 2.203125 -0.640625q0.890625 0 1.578125 0.375q0.703125 0.375 1.140625 0.984375l0 -4.875l1.65625 0l0 13.59375l-1.546875 0zm-5.28125 -4.921875q0 1.890625 0.796875 2.828125q0.8125 0.9375 1.890625 0.9375q1.09375 0 1.859375 -0.890625q0.765625 -0.890625 0.765625 -2.734375q0 -2.015625 -0.78125 -2.953125q-0.78125 -0.953125 -1.921875 -0.953125q-1.109375 0 -1.859375 0.90625q-0.75 0.90625 -0.75 2.859375zm9.281921 -6.765625l0 -1.90625l1.671875 0l0 1.90625l-1.671875 0zm0 11.6875l0 -9.859375l1.671875 0l0 9.859375l-1.671875 0zm3.4573364 -2.9375l1.65625 -0.265625q0.140625 1.0 0.765625 1.53125q0.640625 0.515625 1.78125 0.515625q1.15625 0 1.703125 -0.46875q0.5625 -0.46875 0.5625 -1.09375q0 -0.5625 -0.484375 -0.890625q-0.34375 -0.21875 -1.703125 -0.5625q-1.84375 -0.46875 -2.5625 -0.796875q-0.703125 -0.34375 -1.078125 -0.9375q-0.359375 -0.609375 -0.359375 -1.328125q0 -0.65625 0.296875 -1.21875q0.3125 -0.5625 0.828125 -0.9375q0.390625 -0.28125 1.0625 -0.484375q0.671875 -0.203125 1.4375 -0.203125q1.171875 0 2.046875 0.34375q0.875 0.328125 1.28125 0.90625q0.421875 0.5625 0.578125 1.515625l-1.625 0.21875q-0.109375 -0.75 -0.65625 -1.171875q-0.53125 -0.4375 -1.5 -0.4375q-1.15625 0 -1.640625 0.390625q-0.484375 0.375 -0.484375 0.875q0 0.328125 0.203125 0.59375q0.203125 0.265625 0.640625 0.4375q0.25 0.09375 1.46875 0.4375q1.765625 0.46875 2.46875 0.765625q0.703125 0.296875 1.09375 0.875q0.40625 0.578125 0.40625 1.4375q0 0.828125 -0.484375 1.578125q-0.484375 0.734375 -1.40625 1.140625q-0.921875 0.390625 -2.078125 0.390625q-1.921875 0 -2.9375 -0.796875q-1.0 -0.796875 -1.28125 -2.359375z" fill-rule="nonzero"></path><path fill="#cfe2f3" stroke="#000000" stroke-width="2.0" stroke-linejoin="round" stroke-linecap="butt" d="m345.4556 212.0323l0 0c0 -2.5802307 2.0916748 -4.671921 4.6719055 -4.671921l18.687653 0l0 0c1.2390747 0 2.4273987 0.49221802 3.3035583 1.3683777c0.87615967 0.8761444 1.3683777 2.0644684 1.3683777 3.303543l0 46.593185c0 2.5802307 -2.0917053 4.6719055 -4.671936 4.6719055l-18.687653 0c-2.5802307 0 -4.6719055 -2.0916748 -4.6719055 -4.6719055z" fill-rule="nonzero"></path><path fill="#cfe2f3" stroke="#000000" stroke-width="2.0" stroke-linejoin="round" stroke-linecap="butt" d="m191.1057 440.08713l0 0c0 -2.5802307 2.09169 -4.6719055 4.671921 -4.6719055l18.687653 0l0 0c1.2390747 0 2.4273987 0.49221802 3.303543 1.3683777c0.87615967 0.87615967 1.3683777 2.0644836 1.3683777 3.3035278l0 46.5932c0 2.5802002 -2.09169 4.6719055 -4.671921 4.6719055l-18.687653 0c-2.5802307 0 -4.671921 -2.0917053 -4.671921 -4.6719055z" fill-rule="nonzero"></path><path fill="#cfe2f3" d="m533.94965 98.17585l0 0c0 -16.394592 14.517273 -29.685036 32.425232 -29.685036c17.907898 0 32.42517 13.290443 32.42517 29.685036c0 16.3946 -14.517273 29.685043 -32.42517 29.685043c-17.907959 0 -32.425232 -13.290443 -32.425232 -29.685043z" fill-rule="nonzero"></path><path fill="#a5b4c2" stroke="#000000" stroke-width="2.0" stroke-linejoin="round" stroke-linecap="butt" d="m552.60913 89.29783c0 -1.7077713 1.512207 -3.0921936 3.3776245 -3.0921936c1.8654175 0 3.3776245 1.3844223 3.3776245 3.0921936c0 1.7077713 -1.512207 3.0921936 -3.3776245 3.0921936c-1.8654175 0 -3.3776245 -1.3844223 -3.3776245 -3.0921936m20.776184 0c0 -1.7077713 1.512207 -3.0921936 3.3776245 -3.0921936c1.8654175 0 3.3776245 1.3844223 3.3776245 3.0921936c0 1.7077713 -1.512207 3.0921936 -3.3776245 3.0921936c-1.8654175 0 -3.3776245 -1.3844223 -3.3776245 -3.0921936" fill-rule="nonzero"></path><path stroke="#000000" stroke-width="2.0" stroke-linejoin="round" stroke-linecap="butt" d="m548.8002 111.1217q17.574707 11.049957 35.108276 0" fill-rule="nonzero"></path><path stroke="#000000" stroke-width="2.0" stroke-linejoin="round" stroke-linecap="butt" d="m533.94965 98.17585l0 0c0 -16.394592 14.517273 -29.685036 32.425232 -29.685036c17.907898 0 32.42517 13.290443 32.42517 29.685036c0 16.3946 -14.517273 29.685043 -32.42517 29.685043c-17.907959 0 -32.425232 -13.290443 -32.425232 -29.685043z" fill-rule="nonzero"></path><path fill="#cfe2f3" d="m140.7858 675.5225l0 0c0 -16.394592 14.517258 -29.684998 32.4252 -29.684998c17.907944 0 32.4252 13.290405 32.4252 29.684998c0 16.394592 -14.517258 29.685059 -32.4252 29.685059c-17.907944 0 -32.4252 -13.290466 -32.4252 -29.685059z" fill-rule="nonzero"></path><path fill="#a5b4c2" stroke="#000000" stroke-width="2.0" stroke-linejoin="round" stroke-linecap="butt" d="m159.4453 666.64453c0 -1.7077637 1.5122223 -3.0922241 3.3776245 -3.0922241c1.8654175 0 3.3776245 1.3844604 3.3776245 3.0922241c0 1.7077637 -1.512207 3.092163 -3.3776245 3.092163c-1.8654022 0 -3.3776245 -1.3843994 -3.3776245 -3.092163m20.776154 0c0 -1.7077637 1.512207 -3.0922241 3.3776245 -3.0922241c1.8654022 0 3.3776245 1.3844604 3.3776245 3.0922241c0 1.7077637 -1.5122223 3.092163 -3.3776245 3.092163c-1.8654175 0 -3.3776245 -1.3843994 -3.3776245 -3.092163" fill-rule="nonzero"></path><path stroke="#000000" stroke-width="2.0" stroke-linejoin="round" stroke-linecap="butt" d="m155.63632 688.4684q17.574677 11.049988 35.108307 0" fill-rule="nonzero"></path><path stroke="#000000" stroke-width="2.0" stroke-linejoin="round" stroke-linecap="butt" d="m140.7858 675.5225l0 0c0 -16.394592 14.517258 -29.684998 32.4252 -29.684998c17.907944 0 32.4252 13.290405 32.4252 29.684998c0 16.394592 -14.517258 29.685059 -32.4252 29.685059c-17.907944 0 -32.4252 -13.290466 -32.4252 -29.685059z" fill-rule="nonzero"></path><path fill="#cfe2f3" d="m270.50107 680.51117l0 0c0 -16.394592 14.517242 -29.685059 32.42517 -29.685059c17.907959 0 32.4252 13.290466 32.4252 29.685059c0 16.394592 -14.517242 29.685059 -32.4252 29.685059c-17.907928 0 -32.42517 -13.290466 -32.42517 -29.685059z" fill-rule="nonzero"></path><path fill="#a5b4c2" stroke="#000000" stroke-width="2.0" stroke-linejoin="round" stroke-linecap="butt" d="m289.16055 671.6331c0 -1.7077637 1.512207 -3.092163 3.3776245 -3.092163c1.8654175 0 3.3776245 1.3843994 3.3776245 3.092163c0 1.7077637 -1.512207 3.0922241 -3.3776245 3.0922241c-1.8654175 0 -3.3776245 -1.3844604 -3.3776245 -3.0922241m20.776154 0c0 -1.7077637 1.512207 -3.092163 3.3776245 -3.092163c1.8654175 0 3.3776245 1.3843994 3.3776245 3.092163c0 1.7077637 -1.512207 3.0922241 -3.3776245 3.0922241c-1.8654175 0 -3.3776245 -1.3844604 -3.3776245 -3.0922241" fill-rule="nonzero"></path><path stroke="#000000" stroke-width="2.0" stroke-linejoin="round" stroke-linecap="butt" d="m285.3516 693.45703q17.574646 11.049927 35.108276 0" fill-rule="nonzero"></path><path stroke="#000000" stroke-width="2.0" stroke-linejoin="round" stroke-linecap="butt" d="m270.50107 680.51117l0 0c0 -16.394592 14.517242 -29.685059 32.42517 -29.685059c17.907959 0 32.4252 13.290466 32.4252 29.685059c0 16.394592 -14.517242 29.685059 -32.4252 29.685059c-17.907928 0 -32.42517 -13.290466 -32.42517 -29.685059z" fill-rule="nonzero"></path><path fill="#cfe2f3" d="m497.11093 675.5225l0 0c0 -16.394592 14.517242 -29.684998 32.4252 -29.684998c17.907959 0 32.42517 13.290405 32.42517 29.684998c0 16.394592 -14.517212 29.685059 -32.42517 29.685059c-17.907959 0 -32.4252 -13.290466 -32.4252 -29.685059z" fill-rule="nonzero"></path><path fill="#a5b4c2" stroke="#000000" stroke-width="2.0" stroke-linejoin="round" stroke-linecap="butt" d="m515.77045 666.64453c0 -1.7077637 1.512207 -3.0922241 3.3776245 -3.0922241c1.8654175 0 3.3776245 1.3844604 3.3776245 3.0922241c0 1.7077637 -1.512207 3.092163 -3.3776245 3.092163c-1.8654175 0 -3.3776245 -1.3843994 -3.3776245 -3.092163m20.776123 0c0 -1.7077637 1.512207 -3.0922241 3.3776245 -3.0922241c1.8654175 0 3.3776245 1.3844604 3.3776245 3.0922241c0 1.7077637 -1.512207 3.092163 -3.3776245 3.092163c-1.8654175 0 -3.3776245 -1.3843994 -3.3776245 -3.092163" fill-rule="nonzero"></path><path stroke="#000000" stroke-width="2.0" stroke-linejoin="round" stroke-linecap="butt" d="m511.96146 688.4684q17.574677 11.049988 35.108307 0" fill-rule="nonzero"></path><path stroke="#000000" stroke-width="2.0" stroke-linejoin="round" stroke-linecap="butt" d="m497.11093 675.5225l0 0c0 -16.394592 14.517242 -29.684998 32.4252 -29.684998c17.907959 0 32.42517 13.290405 32.42517 29.684998c0 16.394592 -14.517212 29.685059 -32.42517 29.685059c-17.907959 0 -32.4252 -13.290466 -32.4252 -29.685059z" fill-rule="nonzero"></path><path fill="#cfe2f3" d="m388.44766 680.51117l0 0c0 -16.394592 14.517273 -29.685059 32.4252 -29.685059c17.907928 0 32.4252 13.290466 32.4252 29.685059c0 16.394592 -14.517273 29.685059 -32.4252 29.685059c-17.907928 0 -32.4252 -13.290466 -32.4252 -29.685059z" fill-rule="nonzero"></path><path fill="#a5b4c2" stroke="#000000" stroke-width="2.0" stroke-linejoin="round" stroke-linecap="butt" d="m407.10718 671.6331c0 -1.7077637 1.512207 -3.092163 3.3776245 -3.092163c1.865387 0 3.3776245 1.3843994 3.3776245 3.092163c0 1.7077637 -1.5122375 3.0922241 -3.3776245 3.0922241c-1.8654175 0 -3.3776245 -1.3844604 -3.3776245 -3.0922241m20.776123 0c0 -1.7077637 1.5122375 -3.092163 3.3776245 -3.092163c1.8654175 0 3.3776245 1.3843994 3.3776245 3.092163c0 1.7077637 -1.512207 3.0922241 -3.3776245 3.0922241c-1.865387 0 -3.3776245 -1.3844604 -3.3776245 -3.0922241" fill-rule="nonzero"></path><path stroke="#000000" stroke-width="2.0" stroke-linejoin="round" stroke-linecap="butt" d="m403.2982 693.45703q17.574677 11.049927 35.108307 0" fill-rule="nonzero"></path><path stroke="#000000" stroke-width="2.0" stroke-linejoin="round" stroke-linecap="butt" d="m388.44766 680.51117l0 0c0 -16.394592 14.517273 -29.685059 32.4252 -29.685059c17.907928 0 32.4252 13.290466 32.4252 29.685059c0 16.394592 -14.517273 29.685059 -32.4252 29.685059c-17.907928 0 -32.4252 -13.290466 -32.4252 -29.685059z" fill-rule="nonzero"></path><path fill="#cfe2f3" stroke="#000000" stroke-width="2.0" stroke-linejoin="round" stroke-linecap="butt" d="m360.45786 337.29224l14.015747 -14.015747l14.015747 14.015747l-7.0078735 0l0 27.874023l7.0078735 0l-14.015747 14.015747l-14.015747 -14.015747l7.0078735 0l0 -27.874023z" fill-rule="nonzero"></path><path stroke="#000000" stroke-width="2.0" stroke-linejoin="round" stroke-linecap="butt" d="m396.10678 261.96786l-17.640198 49.99243" fill-rule="evenodd"></path><path fill="#000000" stroke="#000000" stroke-width="2.0" stroke-linecap="butt" d="m375.35138 310.86108l0.09509277 9.658203l6.1353455 -7.4597473z" fill-rule="evenodd"></path><path stroke="#000000" stroke-width="2.0" stroke-linejoin="round" stroke-linecap="butt" d="m359.47134 263.2974l12.090454 48.337738" fill-rule="evenodd"></path><path fill="#000000" stroke="#000000" stroke-width="2.0" stroke-linecap="butt" d="m368.35706 312.4367l5.407074 8.003357l1.0024109 -9.606537z" fill-rule="evenodd"></path><path fill="#cfe2f3" stroke="#000000" stroke-width="2.0" stroke-linejoin="round" stroke-linecap="butt" d="m379.02017 244.88126l8.543304 0l0 -36.204727l17.086609 0l0 36.204727l8.543304 0l-17.086609 17.086609z" fill-rule="nonzero"></path><path fill="#cfe2f3" stroke="#000000" stroke-width="2.0" stroke-linejoin="round" stroke-linecap="butt" d="m154.47025 472.9361l8.543304 0l0 -36.204742l17.086624 0l0 36.204742l8.543304 0l-17.086624 17.086609z" fill-rule="nonzero"></path><path fill="#cfe2f3" stroke="#000000" stroke-width="2.0" stroke-linejoin="round" stroke-linecap="butt" d="m297.85162 440.08713l0 0c0 -2.5802307 2.0916748 -4.6719055 4.6719055 -4.6719055l18.687653 0l0 0c1.2390747 0 2.4273987 0.49221802 3.3035583 1.3683777c0.87615967 0.87615967 1.3683777 2.0644836 1.3683777 3.3035278l0 46.5932c0 2.5802002 -2.0917053 4.6719055 -4.671936 4.6719055l-18.687653 0c-2.5802307 0 -4.6719055 -2.0917053 -4.6719055 -4.6719055z" fill-rule="nonzero"></path><path fill="#cfe2f3" stroke="#000000" stroke-width="2.0" stroke-linejoin="round" stroke-linecap="butt" d="m261.21616 472.9361l8.543304 0l0 -36.204742l17.086609 0l0 36.204742l8.543304 0l-17.086609 17.086609z" fill-rule="nonzero"></path><path fill="#cfe2f3" stroke="#000000" stroke-width="2.0" stroke-linejoin="round" stroke-linecap="butt" d="m413.1934 441.4033l0 0c0 -2.5802307 2.0917053 -4.671936 4.6719055 -4.671936l18.687683 0l0 0c1.2390747 0 2.4273987 0.49221802 3.3035278 1.3683777c0.87615967 0.87615967 1.3683777 2.0644836 1.3683777 3.3035583l0 46.59317c0 2.5802307 -2.0916748 4.6719055 -4.6719055 4.6719055l-18.687683 0c-2.5802002 0 -4.6719055 -2.0916748 -4.6719055 -4.6719055z" fill-rule="nonzero"></path><path fill="#cfe2f3" stroke="#000000" stroke-width="2.0" stroke-linejoin="round" stroke-linecap="butt" d="m376.55795 474.25223l8.543304 0l0 -36.204712l17.086609 0l0 36.204712l8.543304 0l-17.086609 17.086609z" fill-rule="nonzero"></path><path fill="#cfe2f3" stroke="#000000" stroke-width="2.0" stroke-linejoin="round" stroke-linecap="butt" d="m519.93933 441.4033l0 0c0 -2.5802307 2.0916748 -4.671936 4.671875 -4.671936l18.687683 0l0 0c1.2390747 0 2.4273682 0.49221802 3.3035278 1.3683777c0.87615967 0.87615967 1.3684082 2.0644836 1.3684082 3.3035583l0 46.59317c0 2.5802307 -2.0917358 4.6719055 -4.671936 4.6719055l-18.687683 0c-2.5802002 0 -4.671875 -2.0916748 -4.671875 -4.6719055z" fill-rule="nonzero"></path><path fill="#cfe2f3" stroke="#000000" stroke-width="2.0" stroke-linejoin="round" stroke-linecap="butt" d="m483.30386 474.25223l8.543304 0l0 -36.204712l17.086609 0l0 36.204712l8.543335 0l-17.08664 17.086609z" fill-rule="nonzero"></path><path stroke="#000000" stroke-width="2.0" stroke-linejoin="round" stroke-linecap="butt" d="m374.4736 379.182l-191.37206 54.275177" fill-rule="evenodd"></path><path fill="#000000" stroke="#000000" stroke-width="2.0" stroke-linecap="butt" d="m182.2002 430.27905l-7.830475 5.6545715l9.633163 0.7016907z" fill-rule="evenodd"></path><path stroke="#000000" stroke-width="2.0" stroke-linejoin="round" stroke-linecap="butt" d="m374.4736 379.182l-157.96358 52.45166" fill-rule="evenodd"></path><path fill="#000000" stroke="#000000" stroke-width="2.0" stroke-linecap="butt" d="m215.46901 428.4985l-7.5727234 5.9953613l9.65477 0.27493286z" fill-rule="evenodd"></path><path stroke="#000000" stroke-width="2.0" stroke-linejoin="round" stroke-linecap="butt" d="m374.4736 379.182l-85.87369 51.38745" fill-rule="evenodd"></path><path fill="#000000" stroke="#000000" stroke-width="2.0" stroke-linecap="butt" d="m286.90363 427.7348l-6.0919495 7.4952393l9.484558 -1.8258667z" fill-rule="evenodd"></path><path stroke="#000000" stroke-width="2.0" stroke-linejoin="round" stroke-linecap="butt" d="m374.4736 379.182l-53.678772 48.21454" fill-rule="evenodd"></path><path fill="#000000" stroke="#000000" stroke-width="2.0" stroke-linecap="butt" d="m318.58737 424.93887l-4.5448303 8.522583l8.959778 -3.6072998z" fill-rule="evenodd"></path><path stroke="#000000" stroke-width="2.0" stroke-linejoin="round" stroke-linecap="butt" d="m374.4736 379.182l15.454956 47.455322" fill-rule="evenodd"></path><path fill="#000000" stroke="#000000" stroke-width="2.0" stroke-linecap="butt" d="m386.78748 427.6603l5.9516907 7.607086l0.33047485 -9.653015z" fill-rule="evenodd"></path><path stroke="#000000" stroke-width="2.0" stroke-linejoin="round" stroke-linecap="butt" d="m374.4736 379.182l44.628357 48.70215" fill-rule="evenodd"></path><path fill="#000000" stroke="#000000" stroke-width="2.0" stroke-linecap="butt" d="m416.6664 430.11597l8.567413 4.459778l-3.6963196 -8.923401z" fill-rule="evenodd"></path><path stroke="#000000" stroke-width="2.0" stroke-linejoin="round" stroke-linecap="butt" d="m374.4736 379.182l115.04611 53.783447" fill-rule="evenodd"></path><path fill="#000000" stroke="#000000" stroke-width="2.0" stroke-linecap="butt" d="m488.1207 435.95807l9.621094 0.8511963l-6.823059 -6.8363953z" fill-rule="evenodd"></path><path stroke="#000000" stroke-width="2.0" stroke-linejoin="round" stroke-linecap="butt" d="m374.4736 379.182l148.19388 53.476227" fill-rule="evenodd"></path><path fill="#000000" stroke="#000000" stroke-width="2.0" stroke-linecap="butt" d="m521.5462 435.76556l9.65863 -0.026611328l-7.4160767 -6.18808z" fill-rule="evenodd"></path><path stroke="#000000" stroke-width="2.0" stroke-linejoin="round" stroke-linecap="butt" d="m566.3748 127.86089l-195.7019 75.19546" fill-rule="evenodd"></path><path fill="#000000" stroke="#000000" stroke-width="2.0" stroke-linecap="butt" d="m369.48807 199.97267l-7.2874756 6.339035l9.657166 -0.1716919z" fill-rule="evenodd"></path><path stroke="#000000" stroke-width="2.0" stroke-linejoin="round" stroke-linecap="butt" d="m566.3748 127.86089l-159.42719 75.67016" fill-rule="evenodd"></path><path fill="#000000" stroke="#000000" stroke-width="2.0" stroke-linecap="butt" d="m405.53116 200.54669l-6.7829895 6.8761444l9.615967 -0.9074249z" fill-rule="evenodd"></path><path stroke="#000000" stroke-width="2.0" stroke-linejoin="round" stroke-linecap="butt" d="m171.55685 490.0227l1.5267639 143.81549" fill-rule="evenodd"></path><path fill="#000000" stroke="#000000" stroke-width="2.0" stroke-linecap="butt" d="m169.78033 633.8733l3.3996277 9.040588l3.2069244 -9.110779z" fill-rule="evenodd"></path><path stroke="#000000" stroke-width="2.0" stroke-linejoin="round" stroke-linecap="butt" d="m311.86734 491.35223l-8.269379 147.49268" fill-rule="evenodd"></path><path fill="#000000" stroke="#000000" stroke-width="2.0" stroke-linecap="butt" d="m300.2997 638.66003l2.7901917 9.246887l3.806366 -8.877075z" fill-rule="evenodd"></path><path stroke="#000000" stroke-width="2.0" stroke-linejoin="round" stroke-linecap="butt" d="m278.3028 490.0227l22.807098 148.94165" fill-rule="evenodd"></path><path fill="#000000" stroke="#000000" stroke-width="2.0" stroke-linecap="butt" d="m297.84448 639.4644l4.6391907 8.471558l1.8916016 -9.471619z" fill-rule="evenodd"></path><path stroke="#000000" stroke-width="2.0" stroke-linejoin="round" stroke-linecap="butt" d="m393.64456 491.33884l25.208832 147.65842" fill-rule="evenodd"></path><path fill="#000000" stroke="#000000" stroke-width="2.0" stroke-linecap="butt" d="m415.59705 639.5532l4.783783 8.390808l1.7289124 -9.502686z" fill-rule="evenodd"></path><path stroke="#000000" stroke-width="2.0" stroke-linejoin="round" stroke-linecap="butt" d="m427.20917 492.6684l-5.855957 146.16736" fill-rule="evenodd"></path><path fill="#000000" stroke="#000000" stroke-width="2.0" stroke-linecap="butt" d="m418.05243 638.7035l2.9374695 9.201172l3.664154 -8.936707z" fill-rule="evenodd"></path><path stroke="#000000" stroke-width="2.0" stroke-linejoin="round" stroke-linecap="butt" d="m500.39047 491.33884l26.921112 142.7067" fill-rule="evenodd"></path><path fill="#000000" stroke="#000000" stroke-width="2.0" stroke-linecap="butt" d="m524.06537 634.6579l4.928772 8.306519l1.5636597 -9.531311z" fill-rule="evenodd"></path><path stroke="#000000" stroke-width="2.0" stroke-linejoin="round" stroke-linecap="butt" d="m533.9551 492.6684l-4.072876 141.17413" fill-rule="evenodd"></path><path fill="#000000" stroke="#000000" stroke-width="2.0" stroke-linecap="butt" d="m526.5801 633.74725l3.0403442 9.167664l3.5638428 -8.977173z" fill-rule="evenodd"></path><path stroke="#000000" stroke-width="2.0" stroke-linejoin="round" stroke-linecap="butt" d="m205.12146 491.35223l-29.482986 142.73334" fill-rule="evenodd"></path><path fill="#000000" stroke="#000000" stroke-width="2.0" stroke-linecap="butt" d="m172.4033 633.41736l1.3991547 9.556824l5.0711823 -8.220337z" fill-rule="evenodd"></path><path fill="#b6d7a8" d="m656.40814 342.79688l188.04724 0l0 45.874023l-188.04724 0z" fill-rule="nonzero"></path><path fill="#c4dfb9" d="m648.7625 335.1512l203.33856 0l-7.645691 7.6456604l-188.04724 0z" fill-rule="nonzero"></path><path fill="#91ab86" d="m648.7625 396.31656l7.64563 -7.6456604l188.04724 0l7.645691 7.6456604z" fill-rule="nonzero"></path><path fill="#d3e7ca" d="m648.7625 335.1512l7.64563 7.6456604l0 45.874023l-7.64563 7.6456604z" fill-rule="nonzero"></path><path fill="#6d8064" d="m852.1011 335.1512l0 61.165344l-7.645691 -7.6456604l0 -45.874023z" fill-rule="nonzero"></path><path stroke="#000000" stroke-width="2.0" stroke-linejoin="round" stroke-linecap="butt" d="m648.7625 335.1512l203.33856 0l0 61.165344l-203.33856 0zm7.64563 7.6456604l188.04724 0l0 45.874023l-188.04724 0zm-7.64563 -7.6456604l7.64563 7.6456604m-7.64563 53.519684l7.64563 -7.6456604m195.69293 -53.519684l-7.645691 7.6456604m7.645691 53.519684l-7.645691 -7.6456604" fill-rule="nonzero"></path><path fill="#000000" d="m709.4269 371.89795l0 -13.59375l6.03125 0q1.8125 0 2.75 0.359375q0.953125 0.359375 1.515625 1.296875q0.5625 0.921875 0.5625 2.046875q0 1.453125 -0.9375 2.453125q-0.921875 0.984375 -2.890625 1.25q0.71875 0.34375 1.09375 0.671875q0.78125 0.734375 1.484375 1.8125l2.375 3.703125l-2.265625 0l-1.796875 -2.828125q-0.796875 -1.21875 -1.3125 -1.875q-0.5 -0.65625 -0.90625 -0.90625q-0.40625 -0.265625 -0.8125 -0.359375q-0.3125 -0.078125 -1.015625 -0.078125l-2.078125 0l0 6.046875l-1.796875 0zm1.796875 -7.59375l3.859375 0q1.234375 0 1.921875 -0.25q0.703125 -0.265625 1.0625 -0.828125q0.375 -0.5625 0.375 -1.21875q0 -0.96875 -0.703125 -1.578125q-0.703125 -0.625 -2.21875 -0.625l-4.296875 0l0 4.5zm11.676086 7.59375l0 -13.59375l9.84375 0l0 1.59375l-8.046875 0l0 4.171875l7.53125 0l0 1.59375l-7.53125 0l0 4.625l8.359375 0l0 1.609375l-10.15625 0zm11.8029175 -4.375l1.6875 -0.140625q0.125 1.015625 0.5625 1.671875q0.4375 0.65625 1.359375 1.0625q0.9375 0.40625 2.09375 0.40625q1.03125 0 1.8125 -0.3125q0.796875 -0.3125 1.1875 -0.84375q0.390625 -0.53125 0.390625 -1.15625q0 -0.640625 -0.375 -1.109375q-0.375 -0.484375 -1.234375 -0.8125q-0.546875 -0.21875 -2.421875 -0.65625q-1.875 -0.453125 -2.625 -0.859375q-0.96875 -0.515625 -1.453125 -1.265625q-0.46875 -0.75 -0.46875 -1.6875q0 -1.03125 0.578125 -1.921875q0.59375 -0.90625 1.703125 -1.359375q1.125 -0.46875 2.5 -0.46875q1.515625 0 2.671875 0.484375q1.15625 0.484375 1.765625 1.4375q0.625 0.9375 0.671875 2.140625l-1.71875 0.125q-0.140625 -1.28125 -0.953125 -1.9375q-0.796875 -0.671875 -2.359375 -0.671875q-1.625 0 -2.375 0.609375q-0.75 0.59375 -0.75 1.4375q0 0.734375 0.53125 1.203125q0.515625 0.46875 2.703125 0.96875q2.203125 0.5 3.015625 0.875q1.1875 0.546875 1.75 1.390625q0.578125 0.828125 0.578125 1.921875q0 1.09375 -0.625 2.0625q-0.625 0.953125 -1.796875 1.484375q-1.15625 0.53125 -2.609375 0.53125q-1.84375 0 -3.09375 -0.53125q-1.25 -0.546875 -1.96875 -1.625q-0.703125 -1.078125 -0.734375 -2.453125zm16.506104 4.375l0 -12.0l-4.46875 0l0 -1.59375l10.765625 0l0 1.59375l-4.5 0l0 12.0l-1.796875 0zm11.62616 0l5.234375 -13.59375l1.9375 0l5.5625 13.59375l-2.046875 0l-1.59375 -4.125l-5.6875 0l-1.484375 4.125l-1.921875 0zm3.921875 -5.578125l4.609375 0l-1.40625 -3.78125q-0.65625 -1.703125 -0.96875 -2.8125q-0.265625 1.3125 -0.734375 2.59375l-1.5 4.0zm10.0216675 5.578125l0 -13.59375l5.125 0q1.359375 0 2.078125 0.125q1.0 0.171875 1.671875 0.640625q0.671875 0.46875 1.078125 1.3125q0.421875 0.84375 0.421875 1.84375q0 1.734375 -1.109375 2.9375q-1.09375 1.203125 -3.984375 1.203125l-3.484375 0l0 5.53125l-1.796875 0zm1.796875 -7.140625l3.515625 0q1.75 0 2.46875 -0.640625q0.734375 -0.65625 0.734375 -1.828125q0 -0.859375 -0.4375 -1.46875q-0.421875 -0.609375 -1.125 -0.796875q-0.453125 -0.125 -1.671875 -0.125l-3.484375 0l0 4.859375zm10.9436035 7.140625l0 -13.59375l1.8125 0l0 13.59375l-1.8125 0z" fill-rule="nonzero"></path><path stroke="#000000" stroke-width="2.0" stroke-linejoin="round" stroke-linecap="butt" stroke-dasharray="2.0,6.0" d="m561.9613 675.5226l181.75665 -269.25995" fill-rule="evenodd"></path><path fill="#000000" stroke="#000000" stroke-width="2.0" stroke-linecap="butt" d="m746.456 408.11087l2.3399658 -9.370941l-7.816101 5.674469z" fill-rule="evenodd"></path><path fill="#000000" d="m232.69463 53.376087l0 -22.90625l3.03125 0l0 9.40625l11.90625 0l0 -9.40625l3.03125 0l0 22.90625l-3.03125 0l0 -10.796875l-11.90625 0l0 10.796875l-3.03125 0zm21.609375 -8.296875q0 -4.609375 2.5625153 -6.828125q2.140625 -1.84375 5.21875 -1.84375q3.421875 0 5.59375 2.25q2.171875 2.234375 2.171875 6.1875q0 3.203125 -0.96875 5.046875q-0.953125 1.828125 -2.796875 2.84375q-1.828125 1.015625 -4.0 1.015625q-3.484375 0 -5.640625 -2.234375q-2.1406403 -2.234375 -2.1406403 -6.4375zm2.8906403 0q0 3.1875 1.390625 4.78125q1.390625 1.578125 3.5 1.578125q2.09375 0 3.484375 -1.59375q1.390625 -1.59375 1.390625 -4.859375q0 -3.078125 -1.40625 -4.65625q-1.390625 -1.59375 -3.46875 -1.59375q-2.109375 0 -3.5 1.578125q-1.390625 1.578125 -1.390625 4.765625zm19.015625 8.296875l-5.078125 -16.59375l2.90625 0l2.640625 9.578125l0.984375 3.5625q0.0625 -0.265625 0.859375 -3.421875l2.640625 -9.71875l2.890625 0l2.484375 9.625l0.828125 3.171875l0.953125 -3.203125l2.84375 -9.59375l2.734375 0l-5.1875 16.59375l-2.921875 0l-2.640625 -9.9375l-0.640625 -2.828125l-3.359375 12.765625l-2.9375 0zm46.65625 -2.453125q2.109375 1.453125 3.890625 2.125l-0.890625 2.109375q-2.46875 -0.890625 -4.921875 -2.8125q-2.546875 1.421875 -5.625 1.421875q-3.109375 0 -5.640625 -1.5q-2.53125 -1.5 -3.90625 -4.21875q-1.359375 -2.71875 -1.359375 -6.125q0 -3.390625 1.375 -6.171875q1.375 -2.78125 3.90625 -4.234375q2.546875 -1.453125 5.6875 -1.453125q3.171875 0 5.71875 1.515625q2.546875 1.5 3.875 4.21875q1.34375 2.703125 1.34375 6.109375q0 2.828125 -0.859375 5.09375q-0.859375 2.25 -2.59375 3.921875zm-6.671875 -3.875q2.625 0.734375 4.328125 2.1875q2.671875 -2.4375 2.671875 -7.328125q0 -2.78125 -0.953125 -4.859375q-0.9375 -2.078125 -2.765625 -3.21875q-1.8125 -1.15625 -4.078125 -1.15625q-3.390625 0 -5.625 2.328125q-2.234375 2.3125 -2.234375 6.921875q0 4.46875 2.203125 6.859375q2.21875 2.390625 5.65625 2.390625q1.625 0 3.0625 -0.609375q-1.421875 -0.921875 -3.0 -1.3125l0.734375 -2.203125zm14.203125 6.328125l0 -22.90625l7.890625 0q2.671875 0 4.078125 0.328125q1.96875 0.453125 3.359375 1.640625q1.8125 1.53125 2.703125 3.921875q0.90625 2.375 0.90625 5.4375q0 2.609375 -0.609375 4.625q-0.609375 2.015625 -1.5625 3.34375q-0.953125 1.3125 -2.09375 2.078125q-1.125 0.75 -2.734375 1.140625q-1.59375 0.390625 -3.671875 0.390625l-8.265625 0zm3.03125 -2.703125l4.890625 0q2.265625 0 3.546875 -0.421875q1.296875 -0.421875 2.0625 -1.1875q1.078125 -1.078125 1.671875 -2.890625q0.609375 -1.828125 0.609375 -4.421875q0 -3.59375 -1.1875 -5.515625q-1.171875 -1.9375 -2.859375 -2.59375q-1.21875 -0.46875 -3.921875 -0.46875l-4.8125 0l0 17.5zm19.734375 -16.96875l0 -3.234375l2.8125 0l0 3.234375l-2.8125 0zm0 19.671875l0 -16.59375l2.8125 0l0 16.59375l-2.8125 0zm5.96875 -4.953125l2.78125 -0.4375q0.234375 1.671875 1.296875 2.5625q1.078125 0.890625 3.0 0.890625q1.9375 0 2.875 -0.78125q0.9375 -0.796875 0.9375 -1.859375q0 -0.953125 -0.828125 -1.5q-0.578125 -0.375 -2.875 -0.953125q-3.09375 -0.78125 -4.296875 -1.34375q-1.1875 -0.578125 -1.8125 -1.578125q-0.609375 -1.015625 -0.609375 -2.234375q0 -1.109375 0.5 -2.046875q0.515625 -0.953125 1.390625 -1.578125q0.65625 -0.484375 1.78125 -0.8125q1.140625 -0.34375 2.4375 -0.34375q1.953125 0 3.421875 0.5625q1.484375 0.5625 2.1875 1.53125q0.703125 0.953125 0.96875 2.5625l-2.75 0.375q-0.1875 -1.28125 -1.09375 -2.0q-0.890625 -0.71875 -2.53125 -0.71875q-1.9375 0 -2.765625 0.640625q-0.828125 0.640625 -0.828125 1.5q0 0.546875 0.34375 0.984375q0.34375 0.453125 1.078125 0.75q0.421875 0.15625 2.484375 0.71875q2.984375 0.796875 4.15625 1.3125q1.1875 0.5 1.859375 1.46875q0.671875 0.96875 0.671875 2.40625q0 1.40625 -0.828125 2.65625q-0.8125 1.234375 -2.359375 1.921875q-1.546875 0.671875 -3.5 0.671875q-3.234375 0 -4.9375 -1.34375q-1.6875 -1.34375 -2.15625 -3.984375zm30.375 4.953125l-6.078125 -22.90625l3.109375 0l3.484375 15.015625q0.5625 2.359375 0.96875 4.6875q0.875 -3.671875 1.03125 -4.234375l4.359375 -15.46875l3.65625 0l3.28125 11.59375q1.234375 4.3125 1.78125 8.109375q0.4375 -2.171875 1.140625 -4.984375l3.59375 -14.71875l3.046875 0l-6.28125 22.90625l-2.921875 0l-4.828125 -17.453125q-0.609375 -2.1875 -0.71875 -2.6875q-0.359375 1.578125 -0.671875 2.6875l-4.859375 17.453125l-3.09375 0zm24.796875 -8.296875q0 -4.609375 2.5625 -6.828125q2.140625 -1.84375 5.21875 -1.84375q3.421875 0 5.59375 2.25q2.171875 2.234375 2.171875 6.1875q0 3.203125 -0.96875 5.046875q-0.953125 1.828125 -2.796875 2.84375q-1.828125 1.015625 -4.0 1.015625q-3.484375 0 -5.640625 -2.234375q-2.140625 -2.234375 -2.140625 -6.4375zm2.890625 0q0 3.1875 1.390625 4.78125q1.390625 1.578125 3.5 1.578125q2.09375 0 3.484375 -1.59375q1.390625 -1.59375 1.390625 -4.859375q0 -3.078125 -1.40625 -4.65625q-1.390625 -1.59375 -3.46875 -1.59375q-2.109375 0 -3.5 1.578125q-1.390625 1.578125 -1.390625 4.765625zm15.921875 8.296875l0 -16.59375l2.53125 0l0 2.515625q0.96875 -1.765625 1.78125 -2.328125q0.828125 -0.5625 1.8125 -0.5625q1.4218445 0 2.8905945 0.90625l-0.96875 2.609375q-1.03125 -0.609375 -2.0624695 -0.609375q-0.921875 0 -1.65625 0.5625q-0.734375 0.546875 -1.046875 1.53125q-0.46875 1.5 -0.46875 3.28125l0 8.6875l-2.8125 0zm10.7030945 0l0 -22.90625l2.8125 0l0 13.0625l6.65625 -6.75l3.640625 0l-6.34375 6.15625l6.984375 10.4375l-3.46875 0l-5.484375 -8.484375l-1.984375 1.90625l0 6.578125l-2.8125 0zm14.859375 -4.953125l2.78125 -0.4375q0.234375 1.671875 1.296875 2.5625q1.078125 0.890625 3.0 0.890625q1.9375 0 2.875 -0.78125q0.9375 -0.796875 0.9375 -1.859375q0 -0.953125 -0.828125 -1.5q-0.578125 -0.375 -2.875 -0.953125q-3.09375 -0.78125 -4.296875 -1.34375q-1.1875 -0.578125 -1.8125 -1.578125q-0.609375 -1.015625 -0.609375 -2.234375q0 -1.109375 0.5 -2.046875q0.515625 -0.953125 1.390625 -1.578125q0.65625 -0.484375 1.78125 -0.8125q1.140625 -0.34375 2.4375 -0.34375q1.953125 0 3.421875 0.5625q1.484375 0.5625 2.1875 1.53125q0.703125 0.953125 0.96875 2.5625l-2.75 0.375q-0.1875 -1.28125 -1.09375 -2.0q-0.890625 -0.71875 -2.53125 -0.71875q-1.9375 0 -2.765625 0.640625q-0.828125 0.640625 -0.828125 1.5q0 0.546875 0.34375 0.984375q0.34375 0.453125 1.078125 0.75q0.421875 0.15625 2.484375 0.71875q2.984375 0.796875 4.15625 1.3125q1.1875 0.5 1.859375 1.46875q0.671875 0.96875 0.671875 2.40625q0 1.40625 -0.828125 2.65625q-0.8125 1.234375 -2.359375 1.921875q-1.546875 0.671875 -3.5 0.671875q-3.234375 0 -4.9375 -1.34375q-1.6875 -1.34375 -2.15625 -3.984375z" fill-rule="nonzero"></path><path stroke="#000000" stroke-width="2.0" stroke-linejoin="round" stroke-linecap="butt" stroke-dasharray="2.0,6.0" d="m566.3748 127.86089l176.25165 205.82126" fill-rule="evenodd"></path><path fill="#000000" stroke="#000000" stroke-width="2.0" stroke-linecap="butt" d="m740.1173 335.83087l8.41272 4.7452087l-3.3943481 -9.042603z" fill-rule="evenodd"></path></svg>

